control3min_grf.mot
version=1
nRows=17
nColumns 19
inDegrees=yes
endheader
time	1_ground_force_vx	1_ground_force_vy	1_ground_force_vz	1_ground_force_px	1_ground_force_py	1_ground_force_pz	1_ground_torque_x	1_ground_torque_y	1_ground_torque_z	2_ground_force_vx	2_ground_force_vy	2_ground_force_vz	2_ground_force_px	2_ground_force_py	2_ground_force_pz	2_ground_torque_x	2_ground_torque_y	2_ground_torque_z
            2.502500	            0.136995	           -1.440723	           -0.327516	           -0.233013	            0.005581	           -0.255695	            0.127402	           -0.009409	            0.061953	            0.095070	           -0.368293	            0.092502	           -0.232311	            0.006130	           -0.833667	           -0.131395	           -0.028833	           -0.000045
            2.503000	            0.045372	           -0.539805	           -0.231712	           -0.233013	            0.005581	           -0.255695	            0.141590	           -0.055501	            0.020183	            0.047473	           -0.183644	           -0.094533	           -0.232311	            0.006130	           -0.833667	           -0.056211	           -0.038082	            0.018739
            2.503500	           -0.092938	            0.002145	           -0.504187	           -0.233013	            0.005581	           -0.255695	            0.040229	           -0.027702	           -0.022926	            0.045603	            0.367796	            0.189007	           -0.232311	            0.006130	           -0.833667	           -0.018709	           -0.019040	            0.018791
            2.504000	           -0.092369	            0.001162	           -0.274908	           -0.233013	            0.005581	           -0.255695	           -0.044544	           -0.018628	            0.014919	           -0.090336	           -0.921415	            0.090611	           -0.232311	            0.006130	           -0.833667	           -0.018683	           -0.028426	           -0.000093
            2.504500	           -0.046410	           -1.260492	           -0.326288	           -0.233013	            0.005581	           -0.255695	           -0.004231	           -0.009358	            0.016859	            0.048220	           -0.368462	            0.092522	           -0.232311	            0.006130	           -0.833667	           -0.018828	            0.009452	           -0.018808
            2.505000	           -0.321632	           -0.359217	           -0.321741	           -0.233013	            0.005581	           -0.255695	            0.013740	            0.027816	           -0.069979	            0.140529	            0.000675	           -0.046988	           -0.232311	            0.006130	           -0.833667	           -0.018784	           -0.009252	           -0.075427
            2.505500	           -0.000078	           -1.441536	           -0.143751	           -0.233013	            0.005581	           -0.255695	           -0.011743	           -0.018897	            0.093990	            0.000021	           -0.000167	            0.046928	           -0.232311	            0.006130	           -0.833667	           -0.169093	           -0.000409	           -0.056479
            2.506000	           -0.183028	           -1.262092	            0.040900	           -0.233013	            0.005581	           -0.255695	            0.017797	           -0.009645	            0.067333	           -0.139823	           -0.185158	            0.140187	           -0.232311	            0.006130	           -0.833667	           -0.018657	           -0.037811	           -0.018977
            2.506500	            0.045097	           -0.899747	           -0.370826	           -0.233013	            0.005581	           -0.255695	            0.035109	           -0.092581	            0.039099	           -0.046165	           -0.184485	            0.046291	           -0.232311	            0.006130	           -0.833667	           -0.131413	           -0.019515	            0.037689
            2.507000	            0.136816	           -1.079995	           -0.371826	           -0.233013	            0.005581	           -0.255695	            0.147666	           -0.018247	           -0.032138	           -0.137288	           -0.920747	           -0.144010	           -0.232311	            0.006130	           -0.833667	           -0.093969	            0.009181	           -0.018777
            2.507500	           -0.000827	           -1.079825	           -0.417341	           -0.233013	            0.005581	           -0.255695	           -0.000486	            0.036959	            0.000198	            0.048241	           -0.368630	            0.139450	           -0.232311	            0.006130	           -0.833667	           -0.056322	           -0.009656	           -0.000010
            2.508000	            0.090970	            0.181463	           -0.274590	           -0.233013	            0.005581	           -0.255695	            0.011614	            0.064738	            0.004152	           -0.139118	           -0.369641	            0.233386	           -0.232311	            0.006130	           -0.833667	            0.018998	           -0.056716	            0.018640
            2.508500	           -0.184169	            0.001341	           -0.320536	           -0.233013	            0.005581	           -0.255695	            0.013773	           -0.064958	            0.029465	           -0.281805	            0.183468	           -0.093080	           -0.232311	            0.006130	           -0.833667	           -0.000076	            0.018973	           -0.018783
            2.509000	           -0.138293	           -0.178916	           -0.321423	           -0.233013	            0.005581	           -0.255695	           -0.023792	           -0.055459	           -0.024835	            0.095755	           -0.552609	            0.138773	           -0.232311	            0.006130	           -0.833667	            0.000205	           -0.056716	           -0.000202
            2.509500	           -0.184202	            0.181606	           -0.319763	           -0.233013	            0.005581	           -0.255695	           -0.023987	           -0.027831	           -0.007885	           -0.090959	           -0.737601	            0.185124	           -0.232311	            0.006130	           -0.833667	           -0.037478	           -0.019243	            0.056499
            2.510000	           -0.001171	            0.182232	           -0.457786	           -0.233013	            0.005581	           -0.255695	           -0.055745	            0.000134	           -0.037464	           -0.090171	           -0.922754	            0.466036	           -0.232311	            0.006130	           -0.833667	           -0.056280	           -0.019176	            0.018807
            2.510500	           -0.000519	           -0.900149	           -0.279000	           -0.233013	            0.005581	           -0.255695	            0.087401	           -0.009236	           -0.000225	           -0.228309	           -1.657846	           -0.099670	           -0.232311	            0.006130	           -0.833667	            0.037445	            0.019512	           -0.131900
